<?xml version="1.0" standalone="no"?>
<!DOCTYPE svg PUBLIC "-//W3C//DTD SVG 20010904//EN"
 "http://www.w3.org/TR/2001/REC-SVG-20010904/DTD/svg10.dtd">
<svg version="1.0" xmlns="http://www.w3.org/2000/svg"
 width="800.000000pt" height="800.000000pt" viewBox="0 0 800.000000 800.000000"
 preserveAspectRatio="xMidYMid meet">
<metadata>
Created by potrace 1.14, written by Peter Selinger 2001-2017
</metadata>
<g transform="translate(0.000000,800.000000) scale(0.100000,-0.100000)"
fill="#000000" stroke="none">
<path d="M5300 7664 c-41 -12 -88 -27 -105 -33 -70 -24 -155 -50 -225 -71 -41
-11 -124 -39 -185 -60 -60 -21 -123 -42 -139 -46 -16 -4 -41 -13 -55 -20 -14
-8 -30 -14 -36 -14 -15 0 -201 -58 -340 -107 -71 -25 -143 -48 -160 -52 -31
-8 -395 -128 -430 -142 -58 -24 -434 -149 -446 -149 -12 0 -253 -86 -296 -106
-17 -8 -37 -14 -43 -14 -7 0 -38 -9 -69 -19 -31 -11 -110 -36 -176 -57 -66
-20 -133 -44 -150 -52 -31 -16 -303 -111 -465 -164 -52 -17 -122 -41 -155 -54
-33 -12 -121 -43 -195 -68 -74 -25 -182 -64 -240 -86 -58 -23 -156 -61 -219
-85 l-113 -44 -57 19 c-31 10 -73 21 -93 25 -48 8 -154 -11 -193 -35 -16 -10
-41 -21 -55 -25 -14 -4 -45 -23 -70 -42 -86 -65 -134 -98 -174 -121 -137 -77
-151 -166 -60 -382 15 -36 31 -85 35 -110 9 -51 23 -116 46 -205 9 -33 27
-112 40 -175 14 -63 31 -142 38 -175 31 -135 96 -454 104 -505 17 -106 70
-360 117 -555 13 -55 24 -111 24 -125 0 -14 7 -47 15 -75 9 -27 22 -86 30
-130 18 -98 69 -345 83 -400 5 -22 15 -74 22 -115 7 -41 16 -86 21 -100 5 -14
13 -56 19 -95 5 -38 16 -95 24 -125 8 -30 19 -82 25 -115 7 -33 22 -105 35
-160 13 -55 34 -156 46 -225 12 -69 32 -170 46 -225 13 -55 24 -111 24 -125 0
-24 11 -75 61 -270 11 -47 25 -107 30 -135 6 -27 17 -84 26 -125 8 -41 19 -94
24 -117 4 -24 17 -63 29 -87 11 -25 20 -51 20 -58 0 -31 61 -210 96 -282 41
-84 75 -125 145 -173 102 -70 150 -86 377 -124 117 -20 351 11 470 62 67 29
174 102 227 155 26 25 61 50 78 55 18 5 129 9 247 10 118 0 258 5 310 10 52 4
361 17 685 28 325 11 653 25 730 30 77 6 212 11 300 11 88 0 223 4 300 10 133
10 546 25 1105 41 140 4 462 13 716 21 l461 13 36 25 c49 33 80 99 84 175 1
33 3 74 4 90 2 30 -15 154 -51 360 -11 61 -22 133 -25 160 -4 28 -13 88 -22
135 -18 101 -61 378 -73 470 -14 112 -32 224 -36 231 -2 3 -8 44 -14 90 -6 46
-15 107 -20 134 -5 28 -16 97 -25 155 -8 58 -19 130 -25 160 -13 78 -36 223
-61 385 -35 232 -68 447 -78 505 -6 30 -17 107 -26 170 -9 63 -27 174 -41 245
-13 72 -24 146 -24 165 0 19 -4 51 -9 70 -5 19 -14 67 -20 105 -6 39 -20 131
-32 205 -12 74 -25 185 -29 245 -21 326 -104 647 -182 705 -66 49 -132 63
-296 64 l-152 1 -25 54 c-14 29 -37 70 -53 90 -35 46 -47 66 -73 119 -25 50
-76 86 -133 95 -72 11 -116 77 -116 172 0 58 -6 66 -61 84 -51 16 -66 37 -83
111 -9 36 -29 103 -46 150 -18 47 -40 108 -50 135 -125 345 -261 569 -367 604
-21 7 -49 16 -63 20 -17 6 -49 1 -100 -15z m-129 -484 c21 -12 54 -70 81 -143
9 -27 29 -68 43 -92 l25 -44 -42 -11 c-43 -11 -92 -25 -183 -53 -27 -9 -68
-18 -90 -22 -22 -3 -56 -12 -75 -20 -19 -8 -78 -23 -130 -35 -52 -12 -126 -32
-165 -45 -38 -12 -92 -27 -120 -33 -27 -6 -81 -20 -120 -31 -38 -11 -142 -37
-230 -57 -154 -34 -199 -45 -320 -79 -85 -25 -190 -50 -320 -80 -66 -15 -145
-35 -175 -45 -30 -10 -98 -28 -150 -40 -52 -12 -133 -31 -180 -41 -47 -11
-112 -26 -145 -34 -157 -37 -273 -64 -305 -70 -19 -4 -57 -13 -85 -20 -27 -7
-95 -23 -150 -35 -120 -26 -241 -54 -350 -80 -186 -45 -258 -60 -288 -60 -18
0 -65 -9 -106 -20 -41 -11 -91 -20 -110 -20 -35 0 -34 1 29 31 61 28 310 113
410 139 112 29 210 59 266 83 110 47 242 91 374 127 47 12 119 33 160 45 41
13 113 33 160 45 47 12 101 28 120 35 60 22 174 55 188 55 6 0 72 20 145 45
74 25 142 45 151 45 10 0 32 6 49 14 18 8 41 16 52 19 11 3 56 20 100 37 126
50 207 80 245 91 19 6 39 15 45 20 5 5 18 9 28 9 10 0 56 16 100 36 90 39 209
82 302 109 124 36 211 68 239 88 16 11 48 24 70 28 88 17 181 40 191 48 5 5
26 12 45 16 19 4 41 12 50 17 22 13 101 36 128 37 13 1 32 -4 43 -9z m225
-413 c31 -29 49 -61 71 -128 4 -13 -4 -18 -39 -24 -23 -3 -119 -24 -213 -46
-245 -58 -299 -70 -358 -79 -29 -4 -95 -19 -147 -33 -110 -30 -290 -71 -405
-93 -112 -22 -191 -38 -330 -68 -317 -69 -365 -79 -432 -91 -39 -8 -88 -18
-110 -24 -62 -16 -203 -49 -278 -65 -237 -50 -315 -66 -360 -71 -27 -4 -79
-13 -115 -20 -36 -8 -110 -24 -165 -35 -55 -12 -118 -26 -140 -31 -22 -5 -80
-16 -130 -24 -49 -7 -133 -22 -185 -33 -52 -11 -140 -27 -195 -36 -55 -9 -125
-21 -155 -27 -104 -21 -275 -41 -399 -46 -112 -5 -126 -3 -138 13 -32 43 -21
50 124 74 76 12 170 30 208 40 81 20 196 45 275 60 30 5 84 17 120 25 36 9
101 22 145 31 44 8 127 26 185 39 58 13 141 31 185 40 44 9 114 25 155 35 41
11 118 29 170 40 52 12 138 32 190 45 168 42 224 54 283 64 32 6 62 13 66 15
8 6 123 32 221 51 36 7 137 31 225 53 88 21 194 46 235 55 204 43 281 60 345
78 39 11 93 27 120 35 28 8 77 19 110 25 94 16 204 40 275 59 36 10 128 33
205 50 77 17 151 36 165 40 14 5 52 14 84 20 33 5 62 12 64 15 12 12 35 3 68
-28z m552 -241 c10 -14 27 -53 36 -87 21 -72 16 -79 -52 -79 -46 0 -247 -32
-347 -56 -33 -7 -88 -14 -123 -14 -35 0 -111 -9 -170 -20 -59 -11 -152 -29
-207 -40 -256 -49 -324 -60 -356 -60 -30 0 -160 -21 -319 -51 -30 -6 -107 -17
-170 -25 -63 -8 -142 -21 -175 -29 -33 -8 -100 -19 -150 -24 -108 -12 -205
-27 -298 -48 -38 -8 -108 -19 -155 -24 -97 -10 -292 -44 -597 -104 -38 -8
-104 -19 -145 -25 -223 -34 -567 -94 -640 -111 -61 -14 -530 -25 -530 -12 0
12 173 63 212 63 14 0 43 6 64 14 22 7 64 16 94 20 83 10 179 24 340 52 146
25 173 31 355 77 202 50 378 89 475 102 25 4 81 17 125 30 44 12 105 28 135
34 30 6 96 21 145 32 50 11 119 24 154 30 35 5 67 11 71 14 4 2 40 9 80 16 40
6 92 18 114 26 37 13 104 27 336 67 41 8 93 18 115 24 22 6 74 13 115 17 41 3
95 12 120 19 25 8 83 21 130 31 47 9 121 26 165 37 44 11 118 26 165 34 47 7
135 22 195 34 61 11 160 25 220 31 61 5 146 14 190 18 44 5 121 9 172 10 86 1
93 0 111 -23z m253 -246 c12 -7 19 -21 19 -40 0 -21 13 -44 45 -80 46 -52 59
-81 53 -121 -3 -26 -17 -28 -523 -58 -93 -5 -224 -15 -290 -20 -66 -6 -212
-16 -325 -21 -113 -6 -281 -17 -375 -25 -93 -7 -273 -19 -400 -25 -126 -6
-264 -16 -305 -21 -41 -6 -190 -14 -330 -19 -140 -5 -282 -13 -315 -18 -90
-15 -265 -23 -265 -12 0 12 76 30 270 66 41 7 113 22 160 33 47 11 114 21 150
21 36 1 90 5 120 10 30 5 98 14 150 20 52 6 131 17 175 25 44 8 125 22 180 31
55 8 134 24 175 34 67 17 163 33 520 85 58 9 141 20 185 25 127 15 416 60 455
70 19 5 94 14 166 19 72 6 142 15 155 20 32 13 126 13 150 1z m-5314 -206 c-3
-3 -12 -4 -19 -1 -8 3 -5 6 6 6 11 1 17 -2 13 -5z m56 -141 c-7 -2 -21 -2 -30
0 -10 3 -4 5 12 5 17 0 24 -2 18 -5z m5080 -110 c-7 -2 -19 -2 -25 0 -7 3 -2
5 12 5 14 0 19 -2 13 -5z m-460 -30 c-13 -2 -33 -2 -45 0 -13 2 -3 4 22 4 25
0 35 -2 23 -4z m-4696 -19 c-3 -3 -12 -4 -19 -1 -8 3 -5 6 6 6 11 1 17 -2 13
-5z m166 -1 c-7 -2 -19 -2 -25 0 -7 3 -2 5 12 5 14 0 19 -2 13 -5z m3780 -20
c-13 -2 -35 -2 -50 0 -16 2 -5 4 22 4 28 0 40 -2 28 -4z m-500 -30 c-7 -2 -19
-2 -25 0 -7 3 -2 5 12 5 14 0 19 -2 13 -5z m-410 -30 c-7 -2 -21 -2 -30 0 -10
3 -4 5 12 5 17 0 24 -2 18 -5z m-350 -30 c-7 -2 -21 -2 -30 0 -10 3 -4 5 12 5
17 0 24 -2 18 -5z m-500 -30 c-13 -2 -33 -2 -45 0 -13 2 -3 4 22 4 25 0 35 -2
23 -4z m-686 -39 c-3 -3 -12 -4 -19 -1 -8 3 -5 6 6 6 11 1 17 -2 13 -5z m-300
-30 c-3 -3 -12 -4 -19 -1 -8 3 -5 6 6 6 11 1 17 -2 13 -5z m-399 -31 c-10 -2
-26 -2 -35 0 -10 3 -2 5 17 5 19 0 27 -2 18 -5z m-1031 -205 c-3 -8 -6 -5 -6
6 -1 11 2 17 5 13 3 -3 4 -12 1 -19z m30 -180 c-3 -8 -6 -5 -6 6 -1 11 2 17 5
13 3 -3 4 -12 1 -19z m928 -68 c3 -5 1 -10 -4 -10 -6 0 -11 5 -11 10 0 6 2 10
4 10 3 0 8 -4 11 -10z m4435 -190 c10 -7 -17 -9 -85 -8 l-100 2 75 6 c41 4 80
7 85 8 6 1 17 -3 25 -8z m-423 -6 c-3 -3 -12 -4 -19 -1 -8 3 -5 6 6 6 11 1 17
-2 13 -5z m-50 -10 c-3 -3 -12 -4 -19 -1 -8 3 -5 6 6 6 11 1 17 -2 13 -5z
m-310 -30 c-3 -3 -12 -4 -19 -1 -8 3 -5 6 6 6 11 1 17 -2 13 -5z m963 -2 c15
5 53 8 85 6 58 -3 58 -3 72 -43 7 -22 18 -119 24 -215 5 -96 11 -184 12 -195
2 -17 -8 -20 -98 -31 -55 -7 -135 -17 -179 -24 -43 -6 -128 -13 -190 -15 -61
-2 -114 -4 -118 -4 -4 -1 -16 -18 -27 -39 -24 -47 -22 -84 20 -332 5 -30 13
-100 18 -155 6 -55 17 -152 26 -215 9 -63 20 -160 25 -215 11 -125 29 -265 35
-275 3 -4 10 -83 16 -176 6 -93 15 -200 20 -239 5 -38 12 -150 15 -248 l6
-178 -276 3 c-230 3 -278 5 -286 18 -5 8 -11 42 -14 75 -14 156 -39 477 -56
735 -11 157 -24 326 -29 375 -6 50 -15 151 -21 225 -6 74 -15 155 -20 180 -10
48 -28 200 -37 318 -5 66 -8 74 -30 83 -16 6 -49 5 -89 -1 -93 -15 -399 -30
-465 -23 -57 6 -57 6 -68 47 -5 22 -13 77 -17 121 -4 44 -16 105 -27 135 -11
31 -21 81 -21 115 l-1 60 60 7 c33 3 92 12 130 18 39 7 165 14 282 15 116 2
242 8 280 14 105 17 401 40 573 45 226 7 273 11 295 23 11 6 26 8 34 3 8 -4
27 -4 41 2z m737 -29 c-3 -10 -5 -4 -5 12 0 17 2 24 5 18 2 -7 2 -21 0 -30z
m-2490 -25 c-3 -8 -6 -5 -6 6 -1 11 2 17 5 13 3 -3 4 -12 1 -19z m-2800 -10
c-3 -8 -6 -5 -6 6 -1 11 2 17 5 13 3 -3 4 -12 1 -19z m4806 -33 c-7 -21 -13
-19 -13 6 0 11 4 18 10 14 5 -3 7 -12 3 -20z m-2565 -2 c-15 -2 -42 -2 -60 0
-18 2 -6 4 27 4 33 0 48 -2 33 -4z m-3141 -45 c-3 -8 -6 -5 -6 6 -1 11 2 17 5
13 3 -3 4 -12 1 -19z m2526 15 c-7 -2 -19 -2 -25 0 -7 3 -2 5 12 5 14 0 19 -2
13 -5z m881 -8 c22 9 58 15 84 13 65 -4 71 -20 83 -241 6 -100 12 -193 12
-206 2 -23 -3 -25 -98 -42 -94 -17 -298 -37 -429 -42 -58 -2 -60 -3 -79 -41
-22 -42 -23 -33 19 -346 8 -63 19 -158 23 -210 5 -52 18 -162 30 -245 31 -218
49 -381 71 -640 11 -126 24 -257 30 -290 5 -33 10 -113 10 -177 0 -116 0 -118
-24 -124 -14 -3 -137 -4 -275 -2 -188 2 -253 6 -263 16 -8 8 -16 56 -20 130
-4 64 -12 158 -17 207 -5 50 -15 173 -21 275 -6 102 -18 262 -27 355 -8 94
-19 229 -23 300 -5 72 -16 180 -25 240 -28 193 -36 268 -43 375 l-7 105 -84 3
c-46 2 -146 -4 -223 -13 -233 -25 -329 -18 -342 28 -4 12 -9 63 -12 112 -4 57
-13 106 -25 133 -11 24 -22 78 -26 122 l-6 78 39 6 c115 19 246 30 384 31 85
1 223 9 305 18 195 21 528 45 730 52 117 5 164 10 174 20 12 12 16 12 25 -1
10 -13 16 -13 50 1z m-1166 -2 c-10 -2 -28 -2 -40 0 -13 2 -5 4 17 4 22 1 32
-1 23 -4z m1459 -35 c-3 -7 -5 -2 -5 12 0 14 2 19 5 13 2 -7 2 -19 0 -25z
m-2050 -75 c-3 -10 -5 -2 -5 17 0 19 2 27 5 18 2 -10 2 -26 0 -35z m4056 32
c4 -8 2 -17 -3 -20 -6 -4 -10 3 -10 14 0 25 6 27 13 6z m527 -16 c0 -11 -4
-17 -10 -14 -5 3 -10 13 -10 21 0 8 5 14 10 14 6 0 10 -9 10 -21z m-2510 -61
c0 -18 -2 -20 -9 -8 -6 8 -7 18 -5 22 9 14 14 9 14 -14z m-2073 -85 c-3 -10
-5 -4 -5 12 0 17 2 24 5 18 2 -7 2 -21 0 -30z m4070 -60 c-3 -10 -5 -4 -5 12
0 17 2 24 5 18 2 -7 2 -21 0 -30z m-2060 -25 c-3 -7 -5 -2 -5 12 0 14 2 19 5
13 2 -7 2 -19 0 -25z m-3590 0 c-3 -8 -6 -5 -6 6 -1 11 2 17 5 13 3 -3 4 -12
1 -19z m5596 -95 c-7 -2 -19 -2 -25 0 -7 3 -2 5 12 5 14 0 19 -2 13 -5z
m-3973 -29 c0 -14 -4 -23 -10 -19 -5 3 -10 15 -10 26 0 10 5 19 10 19 6 0 10
-12 10 -26z m3563 -1 c-7 -2 -21 -2 -30 0 -10 3 -4 5 12 5 17 0 24 -2 18 -5z
m-1506 -35 c-3 -8 -6 -5 -6 6 -1 11 2 17 5 13 3 -3 4 -12 1 -19z m-2760 -45
c-3 -10 -5 -4 -5 12 0 17 2 24 5 18 2 -7 2 -21 0 -30z m3380 5 c-3 -8 -6 -5
-6 6 -1 11 2 17 5 13 3 -3 4 -12 1 -19z m-430 -14 c-3 -3 -12 -4 -19 -1 -8 3
-5 6 6 6 11 1 17 -2 13 -5z m-469 -21 c-10 -2 -28 -2 -40 0 -13 2 -5 4 17 4
22 1 32 -1 23 -4z m70 0 c-10 -2 -26 -2 -35 0 -10 3 -2 5 17 5 19 0 27 -2 18
-5z m-245 -20 c-13 -2 -33 -2 -45 0 -13 2 -3 4 22 4 25 0 35 -2 23 -4z m1074
-55 c-2 -13 -4 -3 -4 22 0 25 2 35 4 23 2 -13 2 -33 0 -45z m-2089 -5 c-10 -2
-26 -2 -35 0 -10 3 -2 5 17 5 19 0 27 -2 18 -5z m789 -40 c-3 -10 -5 -2 -5 17
0 19 2 27 5 18 2 -10 2 -26 0 -35z m2070 15 c-3 -7 -5 -2 -5 12 0 14 2 19 5
13 2 -7 2 -19 0 -25z m-3180 -4 c-3 -3 -12 -4 -19 -1 -8 3 -5 6 6 6 11 1 17
-2 13 -5z m353 -20 c0 -8 -5 -12 -10 -9 -6 4 -8 11 -5 16 9 14 15 11 15 -7z
m-1293 -80 c-3 -3 -12 -4 -19 -1 -8 3 -5 6 6 6 11 1 17 -2 13 -5z m5310 -56
c-3 -8 -6 -5 -6 6 -1 11 2 17 5 13 3 -3 4 -12 1 -19z m-3240 -75 c-2 -16 -4
-3 -4 27 0 30 2 43 4 28 2 -16 2 -40 0 -55z m1330 5 c-3 -7 -5 -2 -5 12 0 14
2 19 5 13 2 -7 2 -19 0 -25z m-2080 -10 c-3 -7 -5 -2 -5 12 0 14 2 19 5 13 2
-7 2 -19 0 -25z m-1380 -95 c-3 -10 -5 -2 -5 17 0 19 2 27 5 18 2 -10 2 -26 0
-35z m4223 -70 c0 -7 -4 -13 -10 -13 -5 0 -10 12 -10 28 0 21 2 24 10 12 5 -8
10 -21 10 -27z m-2800 -33 c0 -22 -4 -40 -10 -40 -5 0 -10 18 -10 40 0 22 5
40 10 40 6 0 10 -18 10 -40z m2057 -22 c-3 -8 -6 -5 -6 6 -1 11 2 17 5 13 3
-3 4 -12 1 -19z m-3417 -148 c0 -5 -2 -10 -4 -10 -3 0 -8 5 -11 10 -3 6 -1 10
4 10 6 0 11 -4 11 -10z m1387 -177 c-2 -21 -4 -4 -4 37 0 41 2 58 4 38 2 -21
2 -55 0 -75z m2073 67 c0 -5 -5 -10 -11 -10 -5 0 -7 5 -4 10 3 6 8 10 11 10 2
0 4 -4 4 -10z m1937 -157 c-2 -16 -4 -5 -4 22 0 28 2 40 4 28 2 -13 2 -35 0
-50z m-1170 5 c-3 -7 -5 -2 -5 12 0 14 2 19 5 13 2 -7 2 -19 0 -25z m-768 -60
c-1 -45 -2 -49 -9 -23 -11 44 -11 75 0 75 6 0 9 -23 9 -52z m-2052 10 c-3 -8
-6 -5 -6 6 -1 11 2 17 5 13 3 -3 4 -12 1 -19z m770 -245 c-2 -16 -4 -3 -4 27
0 30 2 43 4 28 2 -16 2 -40 0 -55z m3260 45 c-3 -8 -6 -5 -6 6 -1 11 2 17 5
13 3 -3 4 -12 1 -19z m-5170 -85 c-3 -10 -5 -4 -5 12 0 17 2 24 5 18 2 -7 2
-21 0 -30z m-127 -35 c0 -16 -3 -19 -11 -11 -6 6 -8 16 -5 22 11 17 16 13 16
-11z m3347 -80 c-3 -7 -5 -2 -5 12 0 14 2 19 5 13 2 -7 2 -19 0 -25z m1980
-40 c-3 -7 -5 -2 -5 12 0 14 2 19 5 13 2 -7 2 -19 0 -25z m-4037 0 c0 -16 -3
-19 -11 -11 -6 6 -8 16 -5 22 11 17 16 13 16 -11z m7 -155 c-3 -10 -5 -4 -5
12 0 17 2 24 5 18 2 -7 2 -21 0 -30z m772 -57 c-5 -6 -9 7 -8 35 l1 44 8 -35
c5 -20 5 -39 -1 -44z m2111 -132 c0 -13 -4 -24 -10 -24 -5 0 -10 14 -10 31 0
17 4 28 10 24 6 -3 10 -17 10 -31z m-2073 -56 c-3 -8 -6 -5 -6 6 -1 11 2 17 5
13 3 -3 4 -12 1 -19z m1313 -38 c0 -16 -2 -30 -4 -30 -2 0 -6 14 -8 30 -3 17
-1 30 4 30 4 0 8 -13 8 -30z m-2103 -72 c-2 -13 -4 -3 -4 22 0 25 2 35 4 23 2
-13 2 -33 0 -45z m2716 25 c-7 -2 -19 -2 -25 0 -7 3 -2 5 12 5 14 0 19 -2 13
-5z m-380 -30 c-7 -2 -21 -2 -30 0 -10 3 -4 5 12 5 17 0 24 -2 18 -5z m1764
-95 c-3 -8 -6 -5 -6 6 -1 11 2 17 5 13 3 -3 4 -12 1 -19z m-3349 -5 c-10 -2
-26 -2 -35 0 -10 3 -2 5 17 5 19 0 27 -2 18 -5z m-370 -30 c-10 -2 -26 -2 -35
0 -10 3 -2 5 17 5 19 0 27 -2 18 -5z m-2261 -125 c-3 -8 -6 -5 -6 6 -1 11 2
17 5 13 3 -3 4 -12 1 -19z m750 -100 c-2 -13 -4 -5 -4 17 -1 22 1 32 4 23 2
-10 2 -28 0 -40z m170 -40 c-3 -8 -6 -5 -6 6 -1 11 2 17 5 13 3 -3 4 -12 1
-19z m5130 -100 c-3 -7 -5 -2 -5 12 0 14 2 19 5 13 2 -7 2 -19 0 -25z m-5257
-28 c0 -5 -2 -10 -4 -10 -3 0 -8 5 -11 10 -3 6 -1 10 4 10 6 0 11 -4 11 -10z
m5327 -312 c-3 -7 -5 -2 -5 12 0 14 2 19 5 13 2 -7 2 -19 0 -25z m0 -40 c-3
-8 -6 -5 -6 6 -1 11 2 17 5 13 3 -3 4 -12 1 -19z m-5230 -20 c-3 -8 -6 -5 -6
6 -1 11 2 17 5 13 3 -3 4 -12 1 -19z m5056 -95 c-7 -2 -21 -2 -30 0 -10 3 -4
5 12 5 17 0 24 -2 18 -5z m-265 -20 c-10 -2 -28 -2 -40 0 -13 2 -5 4 17 4 22
1 32 -1 23 -4z m89 1 c-3 -3 -12 -4 -19 -1 -8 3 -5 6 6 6 11 1 17 -2 13 -5z
m-4690 -56 c-3 -7 -5 -2 -5 12 0 14 2 19 5 13 2 -7 2 -19 0 -25z m3666 15
c-13 -2 -35 -2 -50 0 -16 2 -5 4 22 4 28 0 40 -2 28 -4z m-690 -30 c-7 -2 -21
-2 -30 0 -10 3 -4 5 12 5 17 0 24 -2 18 -5z m-780 -30 c-7 -2 -21 -2 -30 0
-10 3 -4 5 12 5 17 0 24 -2 18 -5z m-1205 -30 c-16 -2 -40 -2 -55 0 -16 2 -3
4 27 4 30 0 43 -2 28 -4z m-948 -53 c0 -5 -4 -10 -10 -10 -5 0 -10 5 -10 10 0
6 5 10 10 10 6 0 10 -4 10 -10z m-210 -130 c0 -5 -5 -10 -11 -10 -5 0 -7 5 -4
10 3 6 8 10 11 10 2 0 4 -4 4 -10z m-243 -46 c-3 -3 -12 -4 -19 -1 -8 3 -5 6
6 6 11 1 17 -2 13 -5z"/>
</g>
</svg>
